<!-- Generated by IcoMoon.io -->
<svg version="1.1" xmlns="http://www.w3.org/2000/svg" width="1170" height="1024" viewBox="0 0 1170 1024">
<g id="icomoon-ignore">
</g>
<path fill="#000" d="M585.143 382.976l-65.39-130.877c-16.238-32.378-44.373-78.994-84.261-116.638-39.205-37.059-86.162-62.318-142.921-62.318-122.587 0-219.429 96.987-219.429 213.577 0 88.6 40.521 151.113 136.631 246.491 26.284 25.79 53.585 51.871 81.23 77.586l2.591 2.384c81.042 76.069 181.833 170.667 291.547 297.253 109.714-126.537 210.505-221.233 291.547-297.253 30.24-28.104 57.539-54.183 84.487-80.62l-0.665 0.651c96.11-95.378 136.631-157.94 136.631-246.491 0-116.59-96.841-213.577-219.429-213.577-56.856 0-103.717 25.259-142.921 62.318-39.887 37.644-68.023 84.261-84.261 116.638l-65.39 130.877zM613.815 989.477c-6.932 8.161-17.201 13.305-28.672 13.305s-21.74-5.144-28.627-13.251l-0.045-0.054c-117.126-139.118-223.086-238.592-310.37-320.463-151.016-141.751-246.101-230.985-246.101-382.293 0-158.379 130.926-286.72 292.571-286.72 117.029 0 198.9 76.8 248.978 146.871 19.017 26.673 33.499 52.37 43.593 72.558 12.678-25.259 27.258-49.493 43.593-72.558 50.078-70.168 131.95-146.871 248.978-146.871 161.646 0 292.571 128.341 292.571 286.72 0 151.308-95.086 240.494-246.101 382.293-87.284 81.92-193.243 181.492-310.37 320.463z"></path>
</svg>
